<svg width="102" height="38" viewBox="0 0 102 38" fill="none" xmlns="http://www.w3.org/2000/svg" xmlns:xlink="http://www.w3.org/1999/xlink">
 <path d="M15.8454 9.0668L7.92205 4.5334L0 9.0668V4.5334L7.92333 0L15.8467 4.5334V9.0668H15.8454Z" fill="#A435F0">
 </path>
 <path d="M0 12.8732H4.15019V22.8659C4.15019 25.4486 6.09556 26.7064 7.92333 26.7064C9.76516 26.7064 11.6965 25.4144 11.6965 22.8317V12.8732H15.8467V23.104C15.8467 25.4828 15.0925 27.3182 13.583 28.576C12.0735 29.8338 10.187 30.4456 7.88882 30.4456C5.59068 30.4456 3.70412 29.8338 2.22912 28.576C0.754116 27.3182 0 25.5512 0 23.2054V12.8732Z" fill="black">
 </path>
 <path d="M51.7273 25.2928C50.4709 26.4011 49.0393 26.9445 47.4071 26.9445C44.4315 26.9445 42.4338 25.2636 42.2088 22.6606H55.6193C55.6193 22.6606 55.7075 21.8196 55.7075 21.0304C55.7075 18.5832 54.9189 16.5439 53.3071 14.8782C51.7299 13.2126 49.672 12.3969 47.1681 12.3969C44.5274 12.3969 42.366 13.2126 40.6507 14.8782C38.97 16.5439 38.1123 18.7188 38.1123 21.4383V21.5738C38.1123 24.2592 38.97 26.3998 40.6507 27.9984C42.3315 29.5956 44.5606 30.4114 47.2703 30.4114C50.421 30.4114 52.9288 29.1802 54.8102 27.056L51.7273 25.2928ZM43.8398 16.9518C44.7651 16.2374 45.8976 15.8637 47.1668 15.8637C48.367 15.8637 49.3614 16.2374 50.2191 16.986C51.0384 17.6674 51.4806 18.5047 51.519 19.4674H42.3136C42.4466 18.473 42.954 17.6345 43.8398 16.9518Z" fill="black">
 </path>
 <path d="M93.5066 32.7206C91.8207 36.6599 90.0594 38 87.3586 38C86.8959 38 85.4874 38 85.4874 38V34.3546C85.4874 34.3546 86.0715 34.3546 87.0007 34.3546C87.93 34.3546 88.794 34.0088 89.6171 32.1252C90.4403 30.2417 90.4403 30.2417 90.4403 30.2417L83.3401 12.8732H87.5593L92.6016 25.3815L97.7808 12.8732H102C101.999 12.8732 95.2411 28.666 93.5066 32.7206Z" fill="black">
 </path>
 <path d="M32.004 6.31311V14.4248C30.644 13.2164 28.5286 12.4982 26.4823 12.4982C24.0474 12.4982 21.9896 13.3482 20.3088 15.081C18.6625 16.7808 17.8394 18.8873 17.8394 21.4371C17.8394 23.9869 18.6625 26.0934 20.3088 27.8274C21.9896 29.5273 24.0474 30.3772 26.4823 30.3772C29.2917 30.3772 31.0658 29.2841 32.004 28.4266V30.0036H36.1196V6.31311H32.004ZM30.7693 25.1776C29.7748 26.163 28.5056 26.6735 27.0306 26.6735C25.5556 26.6735 24.3554 26.163 23.361 25.1776C22.4011 24.1921 21.9205 22.9343 21.9205 21.4384C21.9205 19.9424 22.4011 18.6846 23.361 17.6992C24.3554 16.7137 25.5556 16.2032 27.0306 16.2032C28.5056 16.2032 29.7748 16.7137 30.7693 17.6992C31.7982 18.6846 32.3133 19.9424 32.3133 21.4384C32.3133 22.9343 31.7982 24.1921 30.7693 25.1776Z" fill="black">
 </path>
 <path d="M76.9416 12.5337C73.8152 12.5337 72.1894 13.8194 71.0761 15.0569C70.6313 14.2158 69.3774 12.5337 66.4466 12.5337C63.9708 12.5337 62.5099 13.7738 61.7826 14.6579V12.8744H57.7014V30.0048H61.7826V20.1476C61.7826 17.836 63.2231 16.1703 65.1442 16.1703C67.0997 16.1703 68.2309 17.632 68.2309 19.9766V30.0036H72.3121V20.1464C72.3121 17.8005 73.7181 16.169 75.7414 16.169C77.697 16.169 78.8282 17.6308 78.8282 19.9754V30.0023H82.9439V19.3978C82.9439 14.9315 80.5217 12.5337 76.9416 12.5337Z" fill="black">
 </path>
</svg>